<?xml version="1.0" standalone="no"?>
<svg viewBox="0 0 200 200" xmlns="http://www.w3.org/2000/svg">
  <path fill="#FAF5F2" d="M39.2,-58C52.1,-52.7,64.8,-44.1,71.3,-32C77.8,-19.9,78.1,-4.3,77.3,12.2C76.6,28.6,74.9,46,63.1,48.5C51.3,51,29.5,38.7,12.8,43.5C-3.9,48.4,-15.6,70.5,-25.8,73.9C-36.1,77.3,-44.9,61.9,-55.9,48.7C-66.9,35.5,-80.1,24.5,-84.5,10.6C-88.8,-3.2,-84.4,-19.9,-77.2,-35C-69.9,-50.2,-59.9,-63.9,-46.6,-69C-33.2,-74.1,-16.6,-70.5,-1.7,-67.8C13.1,-65.1,26.3,-63.2,39.2,-58Z" transform="translate(100 100)" />
</svg>
