<?xml version="1.0" standalone="no"?><svg xmlns="http://www.w3.org/2000/svg" viewBox="0 0 1440 320"><path fill="#0b2038" fill-opacity="1" d="M0,32L30,53.3C60,75,120,117,180,122.7C240,128,300,96,360,112C420,128,480,192,540,192C600,192,660,128,720,96C780,64,840,64,900,69.3C960,75,1020,85,1080,117.3C1140,149,1200,203,1260,208C1320,213,1380,171,1410,149.3L1440,128L1440,320L1410,320C1380,320,1320,320,1260,320C1200,320,1140,320,1080,320C1020,320,960,320,900,320C840,320,780,320,720,320C660,320,600,320,540,320C480,320,420,320,360,320C300,320,240,320,180,320C120,320,60,320,30,320L0,320Z"></path></svg>