<?xml version="1.0" standalone="no"?>
<svg viewBox="0 0 200 200" xmlns="http://www.w3.org/2000/svg">
  <path fill="#26A6A1" d="M29.3,-47.9C43.2,-42.8,63.1,-45.4,74.1,-38.7C85.2,-32,87.4,-16,82.9,-2.6C78.4,10.8,67.4,21.7,59.2,33.4C51.1,45.2,45.9,57.9,36.5,61.3C27.2,64.7,13.6,58.8,2.6,54.2C-8.3,49.6,-16.6,46.4,-28.1,44.2C-39.5,42,-54.2,40.9,-66.6,33.7C-79.1,26.5,-89.4,13.2,-88.5,0.5C-87.5,-12.2,-75.3,-24.3,-65.9,-36.7C-56.4,-49,-49.6,-61.6,-39.1,-68.7C-28.6,-75.7,-14.3,-77.2,-3.3,-71.6C7.7,-65.9,15.5,-53.1,29.3,-47.9Z" transform="translate(100 100)" />
</svg>
