<?xml version="1.0" standalone="no"?>
<svg viewBox="0 0 200 200" xmlns="http://www.w3.org/2000/svg">
  <path fill="#FFAA23" d="M29.7,-52.5C39.7,-45.8,49.6,-40.1,51.4,-31.5C53.2,-22.9,46.9,-11.5,45.2,-1C43.5,9.5,46.4,19,44.8,27.9C43.1,36.7,36.9,44.9,28.7,43.5C20.5,42,10.2,30.8,-3.1,36.1C-16.3,41.4,-32.7,63.2,-39.1,63.6C-45.5,64,-42.1,43.1,-46.4,29C-50.8,14.8,-63.1,7.4,-63,0C-63,-7.3,-50.6,-14.7,-40.1,-18.4C-29.7,-22.2,-21.3,-22.3,-15,-31.1C-8.6,-39.9,-4.3,-57.4,2.8,-62.3C9.9,-67.1,19.8,-59.3,29.7,-52.5Z" transform="translate(100 100)" />
</svg>
