<?xml version="1.0" standalone="no"?>
<svg viewBox="0 0 200 200" xmlns="http://www.w3.org/2000/svg">
  <path fill="#F25334" d="M33.2,-43.2C45,-44,58,-38.2,61.3,-28.7C64.6,-19.1,58.2,-5.8,56.1,8C54,21.8,56.1,36.1,51.3,47.9C46.5,59.7,34.7,68.8,24.8,61.2C14.8,53.5,6.8,28.9,0.4,18.1C-6,7.3,-10.7,10.3,-17.5,10.6C-24.3,10.9,-33.2,8.5,-39.1,2.4C-45.1,-3.7,-48.1,-13.5,-49.6,-27.8C-51.1,-42,-51.1,-60.7,-42.5,-61.4C-34,-62,-17,-44.6,-3.2,-39.7C10.7,-34.8,21.4,-42.3,33.2,-43.2Z" transform="translate(100 100)" />
</svg>
