<?xml version="1.0" standalone="no"?>
<svg viewBox="0 0 200 200" xmlns="http://www.w3.org/2000/svg">
  <path fill="#75C137" d="M20.7,-25.4C33.7,-28.3,56,-36.7,61.9,-33.4C67.9,-30.1,57.5,-15.1,51.6,-3.4C45.6,8.2,44.2,16.4,43.5,28.8C42.8,41.2,42.8,57.7,35.7,64.2C28.6,70.7,14.3,67.2,4,60.3C-6.3,53.4,-12.6,43.1,-23.6,38.8C-34.6,34.6,-50.3,36.3,-53.7,30.8C-57.2,25.4,-48.4,12.7,-41.7,3.8C-35.1,-5,-30.5,-10,-26.2,-14C-21.9,-17.9,-17.8,-20.9,-13.5,-23.1C-9.2,-25.2,-4.6,-26.6,-0.4,-25.9C3.8,-25.2,7.6,-22.5,20.7,-25.4Z" transform="translate(100 100)" />
</svg>
