<?xml version="1.0" standalone="no"?>
<svg viewBox="0 0 200 200" xmlns="http://www.w3.org/2000/svg">
  <path fill="#FFAA23" d="M22.6,-34.8C29.6,-35.1,35.8,-29.7,44.1,-22.9C52.4,-16.1,62.9,-8.1,68.4,3.2C73.9,14.4,74.3,28.8,64.4,32.8C54.5,36.9,34.2,30.5,21.8,39.8C9.3,49.1,4.7,74.1,-0.4,74.8C-5.5,75.6,-11,52.1,-24.7,43.5C-38.5,34.9,-60.4,41.3,-72.2,36.5C-84,31.7,-85.6,15.9,-80.6,2.9C-75.6,-10.1,-64.1,-20.2,-57.1,-33.3C-50.1,-46.3,-47.6,-62.2,-38.9,-61C-30.1,-59.7,-15,-41.1,-3.6,-34.8C7.8,-28.6,15.6,-34.5,22.6,-34.8Z" transform="translate(100 100)" />
</svg>
