<?xml version="1.0" standalone="no"?>
<svg viewBox="0 0 200 200" xmlns="http://www.w3.org/2000/svg">
  <path fill="#75C137" d="M18.1,-33.7C20.2,-30.1,16.3,-18.7,26.8,-11.7C37.3,-4.8,62.1,-2.4,65.9,2.2C69.7,6.8,52.5,13.6,40,16.9C27.4,20.3,19.5,20.1,13.6,22.8C7.7,25.6,3.8,31.2,-4.4,38.9C-12.7,46.6,-25.4,56.3,-31.3,53.6C-37.2,50.9,-36.3,35.7,-42.9,24.6C-49.5,13.6,-63.5,6.8,-62,0.9C-60.5,-5,-43.3,-10.1,-33.8,-15.9C-24.2,-21.8,-22.3,-28.5,-17.9,-30.8C-13.6,-33,-6.8,-30.6,0.6,-31.7C8,-32.8,16,-37.2,18.1,-33.7Z" transform="translate(100 100)" />
</svg>
