<?xml version="1.0" standalone="no"?>
<svg viewBox="0 0 200 200" xmlns="http://www.w3.org/2000/svg">
  <path fill="#26A6A1" d="M19,-31.4C28.4,-27.5,42.2,-30,47,-25.8C51.7,-21.6,47.3,-10.8,50.1,1.6C52.9,14.1,63.1,28.2,58,31.8C53,35.4,32.8,28.6,20.6,32.4C8.4,36.1,4.2,50.5,-1.3,52.7C-6.7,54.9,-13.5,44.9,-26.9,41.9C-40.3,38.8,-60.4,42.6,-72.8,36.8C-85.1,31,-89.8,15.5,-81.6,4.8C-73.3,-6,-52.2,-11.9,-44.5,-26C-36.9,-40,-42.8,-62.2,-37.6,-68.4C-32.4,-74.7,-16.2,-65.1,-5.7,-55.3C4.8,-45.4,9.7,-35.2,19,-31.4Z" transform="translate(100 100)" />
</svg>
