<?xml version="1.0" standalone="no"?>
<svg viewBox="0 0 200 200" xmlns="http://www.w3.org/2000/svg">
  <path fill="#03AB19" d="M37.4,-67C49.4,-57.7,60.8,-49.7,68.8,-38.8C76.8,-27.8,81.5,-13.9,82.6,0.7C83.8,15.2,81.5,30.5,73.8,42C66.1,53.4,52.9,61.1,39.7,66.6C26.5,72.2,13.2,75.5,0.2,75.3C-12.9,75,-25.8,71.1,-37.1,64.4C-48.4,57.8,-58,48.4,-66.7,37.2C-75.4,26,-83.1,13,-85.5,-1.4C-88,-15.8,-85.1,-31.6,-78.2,-46C-71.4,-60.3,-60.5,-73.2,-46.8,-81.5C-33.1,-89.9,-16.6,-93.6,-2,-90.3C12.7,-86.9,25.3,-76.3,37.4,-67Z" transform="translate(100 100)" />
</svg>
