<?xml version="1.0" standalone="no"?>
<svg viewBox="0 0 200 200" xmlns="http://www.w3.org/2000/svg">
  <path fill="#26A6A1" d="M45.1,-78.1C57.8,-70.7,67.2,-57.5,73.9,-43.5C80.5,-29.5,84.5,-14.7,85.5,0.6C86.5,15.9,84.5,31.8,77.3,44.8C70.1,57.8,57.6,68,43.9,76.1C30.1,84.1,15.1,90.1,-0.7,91.2C-16.4,92.4,-32.8,88.7,-45.8,80.3C-58.9,71.8,-68.7,58.6,-75.8,44.4C-82.9,30.2,-87.3,15.1,-87.4,-0.1C-87.6,-15.2,-83.4,-30.5,-75.6,-43.5C-67.8,-56.4,-56.3,-67.1,-43.1,-74.2C-29.9,-81.3,-15,-84.8,0.6,-85.9C16.2,-86.9,32.3,-85.4,45.1,-78.1Z" transform="translate(100 100)" />
</svg>
