<?xml version="1.0" standalone="no"?>
<svg viewBox="0 0 200 200" xmlns="http://www.w3.org/2000/svg">
  <path fill="#FAF5F2" d="M40,-73.5C49.6,-63.6,53.8,-48.6,61,-35.4C68.2,-22.3,78.5,-11.2,79.6,0.6C80.7,12.5,72.7,24.9,63.3,34.1C53.8,43.3,42.9,49.3,32.1,54.5C21.3,59.8,10.6,64.3,-0.5,65.2C-11.7,66.1,-23.4,63.4,-33.6,57.8C-43.9,52.3,-52.7,43.9,-57.9,33.8C-63,23.7,-64.4,11.9,-67.8,-1.9C-71.1,-15.7,-76.2,-31.3,-72.1,-43.1C-67.9,-55,-54.4,-62.9,-40.8,-70.5C-27.3,-78.1,-13.6,-85.3,0.8,-86.6C15.1,-87.9,30.3,-83.3,40,-73.5Z" transform="translate(100 100)" />
</svg>
