<?xml version="1.0" standalone="no"?><svg xmlns="http://www.w3.org/2000/svg" viewBox="0 0 1440 320"><path fill="#FFAA23" fill-opacity="1" d="M0,32L15,37.3C30,43,60,53,90,64C120,75,150,85,180,117.3C210,149,240,203,270,208C300,213,330,171,360,144C390,117,420,107,450,96C480,85,510,75,540,106.7C570,139,600,213,630,224C660,235,690,181,720,133.3C750,85,780,43,810,69.3C840,96,870,192,900,224C930,256,960,224,990,192C1020,160,1050,128,1080,122.7C1110,117,1140,139,1170,154.7C1200,171,1230,181,1260,170.7C1290,160,1320,128,1350,112C1380,96,1410,96,1425,96L1440,96L1440,320L1425,320C1410,320,1380,320,1350,320C1320,320,1290,320,1260,320C1230,320,1200,320,1170,320C1140,320,1110,320,1080,320C1050,320,1020,320,990,320C960,320,930,320,900,320C870,320,840,320,810,320C780,320,750,320,720,320C690,320,660,320,630,320C600,320,570,320,540,320C510,320,480,320,450,320C420,320,390,320,360,320C330,320,300,320,270,320C240,320,210,320,180,320C150,320,120,320,90,320C60,320,30,320,15,320L0,320Z"></path></svg>