<?xml version="1.0" standalone="no"?><svg xmlns="http://www.w3.org/2000/svg" viewBox="0 0 1440 320"><path fill="#FFAA23" fill-opacity="1" d="M0,96L15,96C30,96,60,96,90,112C120,128,150,160,180,181.3C210,203,240,213,270,197.3C300,181,330,139,360,117.3C390,96,420,96,450,106.7C480,117,510,139,540,133.3C570,128,600,96,630,112C660,128,690,192,720,181.3C750,171,780,85,810,42.7C840,0,870,0,900,16C930,32,960,64,990,112C1020,160,1050,224,1080,229.3C1110,235,1140,181,1170,154.7C1200,128,1230,128,1260,154.7C1290,181,1320,235,1350,224C1380,213,1410,139,1425,101.3L1440,64L1440,320L1425,320C1410,320,1380,320,1350,320C1320,320,1290,320,1260,320C1230,320,1200,320,1170,320C1140,320,1110,320,1080,320C1050,320,1020,320,990,320C960,320,930,320,900,320C870,320,840,320,810,320C780,320,750,320,720,320C690,320,660,320,630,320C600,320,570,320,540,320C510,320,480,320,450,320C420,320,390,320,360,320C330,320,300,320,270,320C240,320,210,320,180,320C150,320,120,320,90,320C60,320,30,320,15,320L0,320Z"></path></svg>